<?xml version="1.0" encoding="UTF-8"?>
<svg xmlns="http://www.w3.org/2000/svg" width="700" height="140" viewBox="0 0 700 140">
<g fill="#7E8791">
<path d="M18 52 H88 L76 66 H6 Z"/>
<path d="M18 76 H82 L70 90 H6 Z"/>
<path d="M18 100 H58 L48 114 H6 Z"/>
</g>
<path fill="#F2F5F7" d="M44 18 H118 C147 18 172 42 172 70 C172 98 147 122 118 122 H44 L54 106 H116 C137 106 154 90 154 70 C154 50 137 34 116 34 H54 Z"/>
<g fill="#F2F5F7">
<path d="M238 34 H300 C314 34 326 46 326 60 V80 C326 94 314 106 300 106 H238 C224 106 212 94 212 80 V60 C212 46 224 34 238 34 Z M238 50 C233 50 228 55 228 60 V80 C228 85 233 90 238 90 H300 C305 90 310 85 310 80 V60 C310 55 305 50 300 50 Z"/>
<path d="M382 106 V34 H400 L436 73 L472 34 H490 V106 H472 V60 L436 96 L400 60 V106 Z"/>
<path d="M564 34 H626 C640 34 652 46 652 60 V80 C652 94 640 106 626 106 H564 C550 106 538 94 538 80 V60 C538 46 550 34 564 34 Z M564 50 C559 50 554 55 554 60 V80 C554 85 559 90 564 90 H626 C631 90 636 85 636 80 V60 C636 55 631 50 626 50 Z"/>
</g>
</svg>
